<?xml version="1.0" encoding="UTF-8" standalone="no"?>
<!DOCTYPE svg PUBLIC "-//W3C//DTD SVG 1.1//EN" "http://www.w3.org/Graphics/SVG/1.1/DTD/svg11.dtd">
<svg width="100%" height="100%" viewBox="0 0 244 73" version="1.1" xmlns="http://www.w3.org/2000/svg" xmlns:xlink="http://www.w3.org/1999/xlink" xml:space="preserve" xmlns:serif="http://www.serif.com/" style="fill-rule:evenodd;clip-rule:evenodd;stroke-linejoin:round;stroke-miterlimit:2;">
    <g id="Group_744" transform="matrix(1,0,0,1,-25,-24)">
        <g id="Rectangle_23" transform="matrix(1,0,0,1,25,24)">
            <path d="M73,10C73,4.481 68.519,0 63,0L10,0C4.481,0 0,4.481 0,10L0,63C0,68.519 4.481,73 10,73L63,73C68.519,73 73,68.519 73,63L73,10Z" style="fill:rgb(120,237,183);"/>
        </g>
        <g id="Group_15" transform="matrix(1,0,0,1,0,6)">
            <g id="Flows" transform="matrix(1,0,0,1,114,52)">
                <g>
                    <g transform="matrix(18,0,0,18,0,0)">
                        <path d="M0.239,-0L0.09,-0L0.09,-0.714L0.499,-0.714L0.499,-0.59L0.239,-0.59L0.239,-0.406L0.481,-0.406L0.481,-0.282L0.239,-0.282L0.239,-0Z" style="fill:rgb(68,70,84);fill-rule:nonzero;"/>
                    </g>
                    <g transform="matrix(18,0,0,18,9.87891,0)">
                        <rect x="0.078" y="-0.76" width="0.149" height="0.76" style="fill:rgb(68,70,84);fill-rule:nonzero;"/>
                    </g>
                    <g transform="matrix(18,0,0,18,15.3721,0)">
                        <path d="M0.197,-0.274C0.197,-0.22 0.206,-0.179 0.223,-0.151C0.241,-0.124 0.27,-0.11 0.31,-0.11C0.35,-0.11 0.378,-0.124 0.396,-0.151C0.413,-0.179 0.422,-0.22 0.422,-0.274C0.422,-0.328 0.413,-0.368 0.396,-0.396C0.378,-0.423 0.349,-0.436 0.309,-0.436C0.269,-0.436 0.241,-0.423 0.223,-0.396C0.206,-0.369 0.197,-0.328 0.197,-0.274ZM0.574,-0.274C0.574,-0.185 0.551,-0.116 0.504,-0.065C0.457,-0.015 0.392,0.01 0.308,0.01C0.256,0.01 0.209,-0.002 0.169,-0.025C0.129,-0.048 0.099,-0.081 0.077,-0.124C0.056,-0.167 0.045,-0.217 0.045,-0.274C0.045,-0.363 0.068,-0.432 0.115,-0.482C0.161,-0.531 0.227,-0.556 0.311,-0.556C0.363,-0.556 0.41,-0.545 0.45,-0.522C0.49,-0.499 0.521,-0.466 0.542,-0.424C0.563,-0.381 0.574,-0.331 0.574,-0.274Z" style="fill:rgb(68,70,84);fill-rule:nonzero;"/>
                    </g>
                    <g transform="matrix(18,0,0,18,26.1562,0)">
                        <path d="M0.527,-0L0.485,-0.191L0.428,-0.432L0.425,-0.432L0.325,-0L0.165,-0L0.01,-0.546L0.158,-0.546L0.221,-0.304C0.231,-0.261 0.242,-0.201 0.252,-0.125L0.255,-0.125C0.256,-0.15 0.262,-0.189 0.272,-0.243L0.28,-0.284L0.347,-0.546L0.511,-0.546L0.575,-0.284C0.576,-0.277 0.579,-0.266 0.581,-0.252C0.584,-0.238 0.587,-0.224 0.589,-0.208C0.592,-0.192 0.594,-0.177 0.596,-0.161C0.599,-0.146 0.6,-0.134 0.6,-0.125L0.603,-0.125C0.606,-0.148 0.611,-0.181 0.619,-0.221C0.626,-0.262 0.632,-0.29 0.635,-0.304L0.7,-0.546L0.846,-0.546L0.689,-0L0.527,-0Z" style="fill:rgb(68,70,84);fill-rule:nonzero;"/>
                    </g>
                    <g transform="matrix(18,0,0,18,41.5635,0)">
                        <path d="M0.459,-0.162C0.459,-0.106 0.44,-0.063 0.401,-0.034C0.362,-0.005 0.304,0.01 0.226,0.01C0.186,0.01 0.153,0.007 0.125,0.002C0.097,-0.004 0.07,-0.012 0.046,-0.022L0.046,-0.145C0.074,-0.132 0.105,-0.121 0.139,-0.112C0.174,-0.104 0.205,-0.099 0.231,-0.099C0.285,-0.099 0.312,-0.115 0.312,-0.146C0.312,-0.158 0.308,-0.167 0.301,-0.175C0.294,-0.182 0.282,-0.19 0.264,-0.199C0.247,-0.209 0.223,-0.22 0.194,-0.232C0.152,-0.25 0.121,-0.266 0.101,-0.281C0.082,-0.296 0.067,-0.313 0.058,-0.332C0.049,-0.352 0.045,-0.375 0.045,-0.404C0.045,-0.452 0.064,-0.49 0.101,-0.516C0.139,-0.543 0.192,-0.556 0.261,-0.556C0.327,-0.556 0.391,-0.542 0.453,-0.513L0.408,-0.406C0.381,-0.417 0.355,-0.427 0.332,-0.435C0.308,-0.442 0.284,-0.446 0.259,-0.446C0.215,-0.446 0.193,-0.434 0.193,-0.41C0.193,-0.397 0.2,-0.385 0.214,-0.375C0.228,-0.366 0.259,-0.351 0.307,-0.332C0.35,-0.315 0.381,-0.299 0.401,-0.284C0.421,-0.269 0.435,-0.251 0.445,-0.232C0.454,-0.212 0.459,-0.189 0.459,-0.162Z" style="fill:rgb(68,70,84);fill-rule:nonzero;"/>
                    </g>
                </g>
            </g>
            <g id="EUL_Workflow_Dashboard" transform="matrix(1,0,0,1,114,73)">
                <g>
                    <g transform="matrix(13,0,0,13,0,0)">
                        <path d="M0.496,-0L0.098,-0L0.098,-0.714L0.496,-0.714L0.496,-0.64L0.181,-0.64L0.181,-0.41L0.477,-0.41L0.477,-0.337L0.181,-0.337L0.181,-0.074L0.496,-0.074L0.496,-0Z" style="fill:rgb(130,131,154);fill-rule:nonzero;"/>
                    </g>
                    <g transform="matrix(13,0,0,13,7.22998,0)">
                        <path d="M0.637,-0.714L0.637,-0.252C0.637,-0.171 0.613,-0.107 0.563,-0.06C0.514,-0.014 0.447,0.01 0.361,0.01C0.275,0.01 0.208,-0.014 0.161,-0.061C0.114,-0.107 0.091,-0.172 0.091,-0.254L0.091,-0.714L0.174,-0.714L0.174,-0.248C0.174,-0.188 0.19,-0.143 0.223,-0.111C0.255,-0.079 0.303,-0.063 0.366,-0.063C0.426,-0.063 0.473,-0.079 0.505,-0.111C0.538,-0.143 0.554,-0.189 0.554,-0.249L0.554,-0.714L0.637,-0.714Z" style="fill:rgb(130,131,154);fill-rule:nonzero;"/>
                    </g>
                    <g transform="matrix(13,0,0,13,16.6943,0)">
                        <path d="M0.098,-0L0.098,-0.714L0.181,-0.714L0.181,-0.075L0.496,-0.075L0.496,-0L0.098,-0Z" style="fill:rgb(130,131,154);fill-rule:nonzero;"/>
                    </g>
                    <g transform="matrix(13,0,0,13,26.8188,0)">
                        <path d="M0.721,-0L0.639,-0L0.495,-0.478C0.488,-0.499 0.481,-0.526 0.472,-0.558C0.464,-0.59 0.459,-0.61 0.459,-0.616C0.452,-0.573 0.44,-0.526 0.425,-0.475L0.285,-0L0.203,-0L0.013,-0.714L0.101,-0.714L0.214,-0.273C0.229,-0.211 0.241,-0.155 0.248,-0.105C0.257,-0.165 0.27,-0.223 0.287,-0.28L0.415,-0.714L0.503,-0.714L0.637,-0.276C0.653,-0.225 0.666,-0.168 0.677,-0.105C0.683,-0.151 0.695,-0.208 0.712,-0.274L0.824,-0.714L0.912,-0.714L0.721,-0Z" style="fill:rgb(130,131,154);fill-rule:nonzero;"/>
                    </g>
                    <g transform="matrix(13,0,0,13,38.5938,0)">
                        <path d="M0.548,-0.268C0.548,-0.181 0.526,-0.113 0.482,-0.064C0.438,-0.015 0.377,0.01 0.3,0.01C0.252,0.01 0.209,-0.001 0.172,-0.024C0.135,-0.046 0.107,-0.079 0.086,-0.121C0.066,-0.163 0.056,-0.212 0.056,-0.268C0.056,-0.355 0.078,-0.423 0.122,-0.472C0.165,-0.521 0.226,-0.545 0.303,-0.545C0.378,-0.545 0.438,-0.52 0.482,-0.47C0.526,-0.42 0.548,-0.353 0.548,-0.268ZM0.14,-0.268C0.14,-0.2 0.154,-0.148 0.181,-0.112C0.208,-0.076 0.249,-0.058 0.302,-0.058C0.355,-0.058 0.395,-0.076 0.423,-0.112C0.45,-0.147 0.464,-0.199 0.464,-0.268C0.464,-0.336 0.45,-0.388 0.423,-0.423C0.395,-0.458 0.354,-0.476 0.301,-0.476C0.248,-0.476 0.208,-0.459 0.181,-0.424C0.154,-0.389 0.14,-0.337 0.14,-0.268Z" style="fill:rgb(130,131,154);fill-rule:nonzero;"/>
                    </g>
                    <g transform="matrix(13,0,0,13,46.4458,0)">
                        <path d="M0.33,-0.545C0.354,-0.545 0.375,-0.543 0.394,-0.539L0.383,-0.464C0.361,-0.469 0.341,-0.471 0.324,-0.471C0.281,-0.471 0.244,-0.454 0.213,-0.418C0.182,-0.383 0.167,-0.34 0.167,-0.287L0.167,-0L0.086,-0L0.086,-0.535L0.153,-0.535L0.162,-0.436L0.166,-0.436C0.186,-0.471 0.21,-0.498 0.238,-0.517C0.266,-0.535 0.297,-0.545 0.33,-0.545Z" style="fill:rgb(130,131,154);fill-rule:nonzero;"/>
                    </g>
                    <g transform="matrix(13,0,0,13,51.7524,0)">
                        <path d="M0.166,-0.274C0.18,-0.294 0.201,-0.32 0.23,-0.352L0.403,-0.535L0.499,-0.535L0.282,-0.307L0.514,-0L0.416,-0L0.227,-0.253L0.166,-0.2L0.166,-0L0.086,-0L0.086,-0.76L0.166,-0.76L0.166,-0.357C0.166,-0.339 0.165,-0.311 0.162,-0.274L0.166,-0.274Z" style="fill:rgb(130,131,154);fill-rule:nonzero;"/>
                    </g>
                    <g transform="matrix(13,0,0,13,58.5762,0)">
                        <path d="M0.327,-0.472L0.191,-0.472L0.191,-0L0.11,-0L0.11,-0.472L0.014,-0.472L0.014,-0.509L0.11,-0.538L0.11,-0.568C0.11,-0.699 0.167,-0.765 0.282,-0.765C0.311,-0.765 0.344,-0.759 0.382,-0.748L0.361,-0.683C0.33,-0.693 0.303,-0.698 0.281,-0.698C0.25,-0.698 0.228,-0.688 0.213,-0.668C0.198,-0.647 0.191,-0.615 0.191,-0.57L0.191,-0.535L0.327,-0.535L0.327,-0.472ZM0.506,-0L0.425,-0L0.425,-0.76L0.506,-0.76L0.506,-0Z" style="fill:rgb(130,131,154);fill-rule:nonzero;"/>
                    </g>
                    <g transform="matrix(13,0,0,13,66.2695,0)">
                        <path d="M0.548,-0.268C0.548,-0.181 0.526,-0.113 0.482,-0.064C0.438,-0.015 0.377,0.01 0.3,0.01C0.252,0.01 0.209,-0.001 0.172,-0.024C0.135,-0.046 0.107,-0.079 0.086,-0.121C0.066,-0.163 0.056,-0.212 0.056,-0.268C0.056,-0.355 0.078,-0.423 0.122,-0.472C0.165,-0.521 0.226,-0.545 0.303,-0.545C0.378,-0.545 0.438,-0.52 0.482,-0.47C0.526,-0.42 0.548,-0.353 0.548,-0.268ZM0.14,-0.268C0.14,-0.2 0.154,-0.148 0.181,-0.112C0.208,-0.076 0.249,-0.058 0.302,-0.058C0.355,-0.058 0.395,-0.076 0.423,-0.112C0.45,-0.147 0.464,-0.199 0.464,-0.268C0.464,-0.336 0.45,-0.388 0.423,-0.423C0.395,-0.458 0.354,-0.476 0.301,-0.476C0.248,-0.476 0.208,-0.459 0.181,-0.424C0.154,-0.389 0.14,-0.337 0.14,-0.268Z" style="fill:rgb(130,131,154);fill-rule:nonzero;"/>
                    </g>
                    <g transform="matrix(13,0,0,13,73.8613,0)">
                        <path d="M0.523,-0L0.425,-0.314C0.419,-0.333 0.407,-0.377 0.39,-0.445L0.386,-0.445C0.373,-0.388 0.362,-0.344 0.352,-0.313L0.251,-0L0.157,-0L0.011,-0.535L0.096,-0.535C0.131,-0.401 0.157,-0.298 0.175,-0.228C0.193,-0.158 0.203,-0.11 0.206,-0.086L0.21,-0.086C0.214,-0.104 0.219,-0.128 0.227,-0.158C0.235,-0.187 0.242,-0.211 0.248,-0.228L0.346,-0.535L0.434,-0.535L0.53,-0.228C0.548,-0.172 0.56,-0.125 0.567,-0.087L0.571,-0.087C0.572,-0.099 0.576,-0.117 0.581,-0.141C0.587,-0.166 0.621,-0.297 0.683,-0.535L0.767,-0.535L0.619,-0L0.523,-0Z" style="fill:rgb(130,131,154);fill-rule:nonzero;"/>
                    </g>
                    <g transform="matrix(13,0,0,13,87.3501,0)">
                        <path d="M0.668,-0.364C0.668,-0.246 0.636,-0.156 0.572,-0.094C0.508,-0.031 0.416,-0 0.296,-0L0.098,-0L0.098,-0.714L0.317,-0.714C0.428,-0.714 0.514,-0.683 0.576,-0.622C0.637,-0.56 0.668,-0.474 0.668,-0.364ZM0.58,-0.361C0.58,-0.454 0.557,-0.524 0.51,-0.571C0.463,-0.618 0.394,-0.642 0.302,-0.642L0.181,-0.642L0.181,-0.072L0.282,-0.072C0.381,-0.072 0.456,-0.096 0.505,-0.145C0.555,-0.193 0.58,-0.265 0.58,-0.361Z" style="fill:rgb(130,131,154);fill-rule:nonzero;"/>
                    </g>
                    <g transform="matrix(13,0,0,13,96.8271,0)">
                        <path d="M0.415,-0L0.399,-0.076L0.395,-0.076C0.368,-0.043 0.342,-0.02 0.315,-0.008C0.289,0.004 0.256,0.01 0.216,0.01C0.163,0.01 0.121,-0.004 0.091,-0.031C0.061,-0.059 0.046,-0.097 0.046,-0.148C0.046,-0.256 0.132,-0.313 0.305,-0.318L0.396,-0.321L0.396,-0.354C0.396,-0.396 0.387,-0.427 0.369,-0.447C0.351,-0.467 0.322,-0.477 0.282,-0.477C0.238,-0.477 0.187,-0.463 0.131,-0.436L0.106,-0.498C0.132,-0.512 0.161,-0.524 0.193,-0.532C0.224,-0.54 0.256,-0.544 0.287,-0.544C0.351,-0.544 0.398,-0.53 0.429,-0.501C0.46,-0.473 0.475,-0.428 0.475,-0.365L0.475,-0L0.415,-0ZM0.232,-0.057C0.282,-0.057 0.322,-0.071 0.351,-0.099C0.38,-0.126 0.394,-0.165 0.394,-0.215L0.394,-0.263L0.313,-0.26C0.249,-0.257 0.202,-0.247 0.174,-0.23C0.145,-0.212 0.131,-0.184 0.131,-0.147C0.131,-0.118 0.14,-0.095 0.157,-0.08C0.175,-0.065 0.2,-0.057 0.232,-0.057Z" style="fill:rgb(130,131,154);fill-rule:nonzero;"/>
                    </g>
                    <g transform="matrix(13,0,0,13,104.057,0)">
                        <path d="M0.431,-0.146C0.431,-0.096 0.413,-0.058 0.375,-0.031C0.338,-0.004 0.286,0.01 0.219,0.01C0.148,0.01 0.093,-0.001 0.053,-0.024L0.053,-0.099C0.079,-0.086 0.107,-0.076 0.136,-0.068C0.165,-0.061 0.194,-0.057 0.221,-0.057C0.264,-0.057 0.296,-0.064 0.319,-0.077C0.342,-0.091 0.353,-0.111 0.353,-0.139C0.353,-0.16 0.344,-0.178 0.326,-0.193C0.308,-0.207 0.273,-0.225 0.22,-0.245C0.17,-0.264 0.135,-0.28 0.114,-0.294C0.093,-0.308 0.077,-0.323 0.067,-0.341C0.057,-0.358 0.052,-0.379 0.052,-0.404C0.052,-0.447 0.069,-0.482 0.105,-0.507C0.14,-0.532 0.189,-0.545 0.251,-0.545C0.309,-0.545 0.365,-0.533 0.42,-0.51L0.391,-0.444C0.337,-0.466 0.289,-0.477 0.245,-0.477C0.207,-0.477 0.178,-0.471 0.158,-0.459C0.139,-0.447 0.129,-0.43 0.129,-0.409C0.129,-0.395 0.133,-0.383 0.14,-0.373C0.147,-0.362 0.159,-0.353 0.175,-0.344C0.192,-0.335 0.223,-0.321 0.269,-0.304C0.333,-0.281 0.375,-0.258 0.398,-0.234C0.42,-0.211 0.431,-0.181 0.431,-0.146Z" style="fill:rgb(130,131,154);fill-rule:nonzero;"/>
                    </g>
                    <g transform="matrix(13,0,0,13,110.259,0)">
                        <path d="M0.452,-0L0.452,-0.346C0.452,-0.39 0.442,-0.422 0.422,-0.444C0.403,-0.465 0.371,-0.476 0.329,-0.476C0.273,-0.476 0.232,-0.461 0.206,-0.43C0.18,-0.4 0.167,-0.349 0.167,-0.28L0.167,-0L0.086,-0L0.086,-0.76L0.167,-0.76L0.167,-0.53C0.167,-0.502 0.166,-0.479 0.163,-0.461L0.168,-0.461C0.184,-0.487 0.207,-0.507 0.236,-0.522C0.266,-0.537 0.299,-0.544 0.337,-0.544C0.402,-0.544 0.451,-0.528 0.484,-0.497C0.517,-0.466 0.533,-0.417 0.533,-0.349L0.533,-0L0.452,-0Z" style="fill:rgb(130,131,154);fill-rule:nonzero;"/>
                    </g>
                    <g transform="matrix(13,0,0,13,118.238,0)">
                        <path d="M0.335,-0.544C0.405,-0.544 0.46,-0.52 0.499,-0.472C0.538,-0.424 0.557,-0.356 0.557,-0.268C0.557,-0.18 0.538,-0.112 0.498,-0.063C0.459,-0.015 0.405,0.01 0.335,0.01C0.3,0.01 0.268,0.003 0.24,-0.01C0.211,-0.022 0.187,-0.042 0.167,-0.069L0.161,-0.069L0.144,-0L0.086,-0L0.086,-0.76L0.167,-0.76L0.167,-0.575C0.167,-0.534 0.166,-0.497 0.163,-0.464L0.167,-0.464C0.205,-0.517 0.261,-0.544 0.335,-0.544ZM0.323,-0.476C0.268,-0.476 0.228,-0.46 0.204,-0.428C0.179,-0.397 0.167,-0.343 0.167,-0.268C0.167,-0.193 0.18,-0.139 0.205,-0.107C0.23,-0.074 0.27,-0.058 0.325,-0.058C0.375,-0.058 0.412,-0.076 0.437,-0.113C0.461,-0.149 0.473,-0.201 0.473,-0.269C0.473,-0.339 0.461,-0.391 0.437,-0.425C0.412,-0.459 0.374,-0.476 0.323,-0.476Z" style="fill:rgb(130,131,154);fill-rule:nonzero;"/>
                    </g>
                    <g transform="matrix(13,0,0,13,126.204,0)">
                        <path d="M0.548,-0.268C0.548,-0.181 0.526,-0.113 0.482,-0.064C0.438,-0.015 0.377,0.01 0.3,0.01C0.252,0.01 0.209,-0.001 0.172,-0.024C0.135,-0.046 0.107,-0.079 0.086,-0.121C0.066,-0.163 0.056,-0.212 0.056,-0.268C0.056,-0.355 0.078,-0.423 0.122,-0.472C0.165,-0.521 0.226,-0.545 0.303,-0.545C0.378,-0.545 0.438,-0.52 0.482,-0.47C0.526,-0.42 0.548,-0.353 0.548,-0.268ZM0.14,-0.268C0.14,-0.2 0.154,-0.148 0.181,-0.112C0.208,-0.076 0.249,-0.058 0.302,-0.058C0.355,-0.058 0.395,-0.076 0.423,-0.112C0.45,-0.147 0.464,-0.199 0.464,-0.268C0.464,-0.336 0.45,-0.388 0.423,-0.423C0.395,-0.458 0.354,-0.476 0.301,-0.476C0.248,-0.476 0.208,-0.459 0.181,-0.424C0.154,-0.389 0.14,-0.337 0.14,-0.268Z" style="fill:rgb(130,131,154);fill-rule:nonzero;"/>
                    </g>
                    <g transform="matrix(13,0,0,13,134.056,0)">
                        <path d="M0.415,-0L0.399,-0.076L0.395,-0.076C0.368,-0.043 0.342,-0.02 0.315,-0.008C0.289,0.004 0.256,0.01 0.216,0.01C0.163,0.01 0.121,-0.004 0.091,-0.031C0.061,-0.059 0.046,-0.097 0.046,-0.148C0.046,-0.256 0.132,-0.313 0.305,-0.318L0.396,-0.321L0.396,-0.354C0.396,-0.396 0.387,-0.427 0.369,-0.447C0.351,-0.467 0.322,-0.477 0.282,-0.477C0.238,-0.477 0.187,-0.463 0.131,-0.436L0.106,-0.498C0.132,-0.512 0.161,-0.524 0.193,-0.532C0.224,-0.54 0.256,-0.544 0.287,-0.544C0.351,-0.544 0.398,-0.53 0.429,-0.501C0.46,-0.473 0.475,-0.428 0.475,-0.365L0.475,-0L0.415,-0ZM0.232,-0.057C0.282,-0.057 0.322,-0.071 0.351,-0.099C0.38,-0.126 0.394,-0.165 0.394,-0.215L0.394,-0.263L0.313,-0.26C0.249,-0.257 0.202,-0.247 0.174,-0.23C0.145,-0.212 0.131,-0.184 0.131,-0.147C0.131,-0.118 0.14,-0.095 0.157,-0.08C0.175,-0.065 0.2,-0.057 0.232,-0.057Z" style="fill:rgb(130,131,154);fill-rule:nonzero;"/>
                    </g>
                    <g transform="matrix(13,0,0,13,141.286,0)">
                        <path d="M0.33,-0.545C0.354,-0.545 0.375,-0.543 0.394,-0.539L0.383,-0.464C0.361,-0.469 0.341,-0.471 0.324,-0.471C0.281,-0.471 0.244,-0.454 0.213,-0.418C0.182,-0.383 0.167,-0.34 0.167,-0.287L0.167,-0L0.086,-0L0.086,-0.535L0.153,-0.535L0.162,-0.436L0.166,-0.436C0.186,-0.471 0.21,-0.498 0.238,-0.517C0.266,-0.535 0.297,-0.545 0.33,-0.545Z" style="fill:rgb(130,131,154);fill-rule:nonzero;"/>
                    </g>
                    <g transform="matrix(13,0,0,13,146.333,0)">
                        <path d="M0.45,-0.072L0.446,-0.072C0.408,-0.017 0.352,0.01 0.278,0.01C0.208,0.01 0.153,-0.014 0.115,-0.062C0.076,-0.11 0.056,-0.178 0.056,-0.266C0.056,-0.354 0.076,-0.423 0.115,-0.472C0.154,-0.521 0.208,-0.545 0.278,-0.545C0.35,-0.545 0.406,-0.519 0.445,-0.466L0.451,-0.466L0.448,-0.504L0.446,-0.542L0.446,-0.76L0.527,-0.76L0.527,-0L0.461,-0L0.45,-0.072ZM0.288,-0.058C0.343,-0.058 0.384,-0.073 0.408,-0.103C0.433,-0.133 0.446,-0.182 0.446,-0.249L0.446,-0.266C0.446,-0.342 0.433,-0.396 0.408,-0.428C0.383,-0.461 0.342,-0.477 0.287,-0.477C0.24,-0.477 0.203,-0.459 0.178,-0.422C0.153,-0.385 0.14,-0.333 0.14,-0.265C0.14,-0.197 0.153,-0.145 0.178,-0.11C0.203,-0.076 0.24,-0.058 0.288,-0.058Z" style="fill:rgb(130,131,154);fill-rule:nonzero;"/>
                    </g>
                </g>
            </g>
        </g>
        <g id="Rectangle_24" transform="matrix(0.669131,-0.743145,0.743145,0.669131,45.657,53.376)">
            <path d="M10.986,3C10.986,1.344 9.642,0 7.986,0L3,0C1.344,0 0,1.344 0,3L0,29.311C0,30.967 1.344,32.311 3,32.311L7.986,32.311C9.642,32.311 10.986,30.967 10.986,29.311L10.986,3Z" style="fill:white;"/>
        </g>
        <g id="Rectangle_25" transform="matrix(0.669131,-0.743145,0.743145,0.669131,65.621,54.164)">
            <path d="M10.986,3C10.986,1.344 9.642,0 7.986,0L3,0C1.344,0 0,1.344 0,3L0,18.972C0,20.628 1.344,21.972 3,21.972L7.986,21.972C9.642,21.972 10.986,20.628 10.986,18.972L10.986,3Z" style="fill:white;"/>
        </g>
        <g id="Rectangle_26" transform="matrix(0.669131,-0.743145,0.743145,0.669131,33.941,59.687)">
            <path d="M10.986,3C10.986,1.344 9.642,0 7.986,0L3,0C1.344,0 0,1.344 0,3L0,18.972C0,20.628 1.344,21.972 3,21.972L7.986,21.972C9.642,21.972 10.986,20.628 10.986,18.972L10.986,3Z" style="fill:white;fill-opacity:0.5;"/>
        </g>
    </g>
</svg>
