<svg xmlns="http://www.w3.org/2000/svg" width="160.701" height="185.839" viewBox="0 0 160.701 185.839">
  <g id="Group_733" data-name="Group 733" transform="translate(0 1982.162)">
    <path id="Path_619" data-name="Path 619" d="M272.525-1804.04a63.175,63.175,0,0,1,63.175,63.175,63.175,63.175,0,0,1-63.175,63.175,63.175,63.175,0,0,1-63.175-63.175A63.175,63.175,0,0,1,272.525-1804.04Z" transform="translate(-189.722 -161.422)" fill="#fcdfdd" fill-rule="evenodd"/>
    <path id="Path_620" data-name="Path 620" d="M600.879-1543.86A63.459,63.459,0,0,1,618.389-1500a63.483,63.483,0,0,1-18.653,45.03,63.484,63.484,0,0,1-45.03,18.653,63.39,63.39,0,0,1-35.176-10.59l.655-.782a62.373,62.373,0,0,0,34.521,10.357,62.477,62.477,0,0,0,44.314-18.354A62.473,62.473,0,0,0,617.374-1500a62.449,62.449,0,0,0-17.151-43.074Z" transform="translate(-470.821 -397.209)" fill="#1f1d5a"/>
    <path id="Path_621" data-name="Path 621" d="M111.908-1589.83l1.584,1.584,1.584,1.584-1.584,1.584-1.584,1.584-1.584-1.584-1.584-1.584,1.584-1.584Z" transform="translate(-98.545 -355.549)" fill="#3abeb5" fill-rule="evenodd"/>
    <path id="Path_622" data-name="Path 622" d="M196.072-1750.51a2.092,2.092,0,0,1,2.091,2.092,2.091,2.091,0,0,1-2.091,2.091,2.092,2.092,0,0,1-2.092-2.091A2.092,2.092,0,0,1,196.072-1750.51Z" transform="translate(-175.793 -209.933)" fill="#f4c13b" fill-rule="evenodd"/>
    <path id="Path_623" data-name="Path 623" d="M821.236-1702.443l-1.568-5.117-6.556.061-.656,5.056-.505,3.2c2.283,1.89,7.507,1.844,9.784-.041Z" transform="translate(-735.825 -248.856)" fill="#f8b6b8" fill-rule="evenodd"/>
    <path id="Path_624" data-name="Path 624" d="M825.736-1672.65a7.639,7.639,0,0,1-8.022.359l-.174,1.344S823.141-1669.665,825.736-1672.65Z" transform="translate(-740.891 -280.493)" fill="#f6a4a6" fill-rule="evenodd"/>
    <path id="Path_625" data-name="Path 625" d="M748.667-1899.43c-3.286,0-6.619,2.971-9.906,2.975q.047,3.675.092,7.349c-2.178-.008-2.491,4.189.925,4.4,2.585,10.669,15.1,10.669,17.685,0,3.416-.209,3.1-4.406.926-4.4q.045-3.675.091-7.349C755.818-1899.507,751.954-1899.426,748.667-1899.43Z" transform="translate(-668.094 -74.975)" fill="#f8b6b8" fill-rule="evenodd"/>
    <path id="Path_626" data-name="Path 626" d="M751.661-1977.826c-1.751.072-2.833-.594-2.977-2.292-.127-1.562-1.416-2.286-4.143-1.971a32.951,32.951,0,0,0-4.062,2.292,4.084,4.084,0,0,1-3.7.563c-2.326-.792-3.237.726-2.935,4.224a3.408,3.408,0,0,1-.4,2.373c-3.2,2.545-.753,9.153,3.781,9.794.093-.761.49-1.088,1.147-1.045,3.526-.549,2.849-3.292,3.64-5.028.911-3.888,4.7-6.621,5.994-4.465.108.7.4.733.8.362,1.65-.783,3.122,1.246,2.575,5.028a30.7,30.7,0,0,1,.8,4.424c2.412-1.337,4.991-2.6,3.257-5.792-.856-1.2-1.867-2.412-.884-3.419C757.972-1976.932,755.76-1977.912,751.661-1977.826Z" transform="translate(-663.357 0)" fill="#1f1d5a" fill-rule="evenodd"/>
    <path id="Path_627" data-name="Path 627" d="M892.262-1781.94a.6.6,0,0,1,.523.657.6.6,0,0,1-.523.658.6.6,0,0,1-.522-.658A.6.6,0,0,1,892.262-1781.94Z" transform="translate(-808.135 -181.45)" fill-rule="evenodd"/>
    <path id="Path_628" data-name="Path 628" d="M815.452-1781.94a.6.6,0,0,1,.522.657.6.6,0,0,1-.522.658.6.6,0,0,1-.522-.658A.6.6,0,0,1,815.452-1781.94Z" transform="translate(-738.526 -181.45)" fill-rule="evenodd"/>
    <path id="Path_629" data-name="Path 629" d="M847.351-1713.509a6.876,6.876,0,0,0,2.985-.522c.969-.6-.69,1.9-2.015,1.9S847.09-1712.735,847.351-1713.509Z" transform="translate(-767.763 -242.908)" fill="#fff" fill-rule="evenodd"/>
    <path id="Path_630" data-name="Path 630" d="M865.244-1825.13a4.385,4.385,0,0,1,3.108,1.287,4.381,4.381,0,0,1,1.287,3.107,4.381,4.381,0,0,1-1.287,3.107,4.381,4.381,0,0,1-3.108,1.287,4.377,4.377,0,0,1-3.107-1.287,4.381,4.381,0,0,1-1.287-3.107,4.381,4.381,0,0,1,1.287-3.107A4.381,4.381,0,0,1,865.244-1825.13Zm2.764,1.63a3.9,3.9,0,0,0-2.764-1.145,3.9,3.9,0,0,0-2.764,1.145,3.9,3.9,0,0,0-1.145,2.764,3.9,3.9,0,0,0,1.145,2.764,3.9,3.9,0,0,0,2.764,1.145,3.894,3.894,0,0,0,2.764-1.145,3.892,3.892,0,0,0,1.145-2.764A3.894,3.894,0,0,0,868.008-1823.5Z" transform="translate(-780.141 -142.309)" fill="#1954a6"/>
    <path id="Path_631" data-name="Path 631" d="M767.614-1825.13a4.381,4.381,0,0,1,3.107,1.287,4.381,4.381,0,0,1,1.287,3.107,4.381,4.381,0,0,1-1.287,3.107,4.377,4.377,0,0,1-3.107,1.287,4.377,4.377,0,0,1-3.107-1.287,4.381,4.381,0,0,1-1.287-3.107,4.381,4.381,0,0,1,1.287-3.107A4.381,4.381,0,0,1,767.614-1825.13Zm2.764,1.63a3.9,3.9,0,0,0-2.764-1.145,3.9,3.9,0,0,0-2.764,1.145,3.9,3.9,0,0,0-1.145,2.764,3.9,3.9,0,0,0,1.145,2.764,3.894,3.894,0,0,0,2.764,1.145,3.894,3.894,0,0,0,2.764-1.145,3.9,3.9,0,0,0,1.145-2.764A3.9,3.9,0,0,0,770.378-1823.5Z" transform="translate(-691.664 -142.309)" fill="#1954a6"/>
    <path id="Path_632" data-name="Path 632" d="M678.379-1619.289l-13.819,29.673,6.189,18.574-1.878,11.877h28.806l-.636-4.019,6.014-26.7-14.893-29.441C685.886-1617.445,680.661-1617.4,678.379-1619.289Z" transform="translate(-602.254 -328.814)" fill="#1954a6" fill-rule="evenodd"/>
    <path id="Path_633" data-name="Path 633" d="M364.714-1647.7a359.709,359.709,0,0,0-25.982,53.667c-.819,2.17-1.189,3.833,1.336,4.371H386.5l2.1-2.745-1.167-3.28-12.521-5.852,8.135-51.443-15.541,2.732A5.182,5.182,0,0,0,364.714-1647.7Z" transform="translate(-306.418 -298.319)" fill="#f58e8c" fill-rule="evenodd"/>
    <path id="Path_634" data-name="Path 634" d="M634.4-1616.39a4.609,4.609,0,0,0-.37.322l2.1,3.542a.242.242,0,0,0,.332.085.243.243,0,0,0,.085-.332l-2.121-3.586A.239.239,0,0,0,634.4-1616.39Z" transform="translate(-574.586 -331.479)" fill="#fff" fill-rule="evenodd"/>
    <path id="Path_635" data-name="Path 635" d="M736.684-1647.28l-.5.088-4.487,28.374a.243.243,0,0,0,.2.276.242.242,0,0,0,.276-.2Z" transform="translate(-663.091 -303.485)" fill="#fff" fill-rule="evenodd"/>
    <path id="Path_636" data-name="Path 636" d="M926.531-1650.248l-15.541-2.732,9.377,59.3.636,4.019H953.97c2.525-.538,2.155-2.2,1.336-4.371a359.711,359.711,0,0,0-25.982-53.667A5.179,5.179,0,0,0,926.531-1650.248Z" transform="translate(-825.58 -298.319)" fill="#f58e8c" fill-rule="evenodd"/>
    <path id="Path_637" data-name="Path 637" d="M949.243-1646.252l-.5-.088,4.5,28.448a.242.242,0,0,0,.276.2.243.243,0,0,0,.2-.277Z" transform="translate(-859.79 -304.337)" fill="#fff" fill-rule="evenodd"/>
    <path id="Path_638" data-name="Path 638" d="M1111.07-1226.494a.242.242,0,0,1,.07.336.242.242,0,0,1-.336.07l-18.846-12.364-2.837,5.05,12.063,18.742a.241.241,0,0,1-.073.335.241.241,0,0,1-.334-.073l-12.139-18.859a.24.24,0,0,1-.011-.255l3.034-5.4.01-.018a.243.243,0,0,1,.336-.07Zm-19.408-12.418v0" transform="translate(-986.535 -673.45)" fill="#1f1d5a"/>
    <path id="Path_639" data-name="Path 639" d="M873.972-1035.845c-3.833-4.609-8.936-6.2-15.36-4.659l-3.5-1.366-.932,6.025Z" transform="translate(-774.096 -852.134)" fill="#f6a4a6" fill-rule="evenodd"/>
    <path id="Path_640" data-name="Path 640" d="M587.337-1394.609a.242.242,0,0,1,.308-.151.243.243,0,0,1,.151.308l-6.972,20.314L607-1361.906a.242.242,0,0,1,.116.322.243.243,0,0,1-.322.117l-26.35-12.316a.244.244,0,0,1-.145-.307Z" transform="translate(-525.878 -532.317)" fill="#1f1d5a"/>
    <path id="Path_641" data-name="Path 641" d="M639.005-1305.93h48.644c.042,0,.085,0,.129.006h0a1.561,1.561,0,0,1,.95.439,1.34,1.34,0,0,1,.415.957c0,.036,0,.073,0,.112l-2.272,26.11a1.688,1.688,0,0,1-.474,1.048,1.422,1.422,0,0,1-1.015.423h-44.1a1.418,1.418,0,0,1-1.016-.423,1.688,1.688,0,0,1-.474-1.048l-2.272-26.11c0-.038,0-.076,0-.112a1.34,1.34,0,0,1,.415-.957,1.561,1.561,0,0,1,.951-.439h.008C638.925-1305.928,638.966-1305.93,639.005-1305.93Zm48.644.486H639.005a.71.71,0,0,0-.081,0h-.008a1.07,1.07,0,0,0-.653.3.863.863,0,0,0-.269.612c0,.023,0,.047,0,.069l2.271,26.111a1.206,1.206,0,0,0,.336.746.94.94,0,0,0,.672.28h44.1a.94.94,0,0,0,.672-.281,1.2,1.2,0,0,0,.335-.745l2.272-26.111c0-.022,0-.046,0-.069a.86.86,0,0,0-.269-.612,1.07,1.07,0,0,0-.653-.3C687.71-1305.443,687.68-1305.444,687.649-1305.444Z" transform="translate(-577.74 -612.831)" fill="#f05775"/>
    <path id="Path_642" data-name="Path 642" d="M621.64-1282.75h48.644a1.217,1.217,0,0,1,1.249,1.249l-2.272,26.11a1.3,1.3,0,0,1-1.249,1.25h-44.1a1.3,1.3,0,0,1-1.249-1.25l-2.271-26.11A1.217,1.217,0,0,1,621.64-1282.75Z" transform="translate(-562.223 -633.838)" fill="#1f1d5a" fill-rule="evenodd"/>
    <path id="Path_643" data-name="Path 643" d="M621.64-1282.75h15.773l-15.436,19.493-1.586-18.244A1.217,1.217,0,0,1,621.64-1282.75Z" transform="translate(-562.223 -633.838)" fill="#fbae4b" fill-rule="evenodd"/>
    <path id="Path_644" data-name="Path 644" d="M858.551-1168.39a3.582,3.582,0,0,1,3.582,3.582,3.581,3.581,0,0,1-3.582,3.582,3.581,3.581,0,0,1-3.581-3.582A3.582,3.582,0,0,1,858.551-1168.39Z" transform="translate(-774.812 -737.476)" fill="#f58e8c" fill-rule="evenodd"/>
    <path id="Path_645" data-name="Path 645" d="M259.57-973.968H380.723v-3.642H259.57Z" transform="translate(-235.234 -910.37)" fill="#f4c13b" fill-rule="evenodd"/>
    <path id="Path_646" data-name="Path 646" d="M387.643-210.59l-4.2,10.381-4.5-.222,3.971-10.548Z" transform="translate(-343.412 -1605.124)" fill="#f8b6b8" fill-rule="evenodd"/>
    <path id="Path_647" data-name="Path 647" d="M805.421-717.839h-25.7a3.569,3.569,0,0,0-2.551,1.064,4.3,4.3,0,0,0-1.216,2.734l-4.245,58.352h-.972v-.013l4.25-58.407a5.28,5.28,0,0,1,1.5-3.354,4.529,4.529,0,0,1,3.237-1.348h25.7a4.528,4.528,0,0,1,3.236,1.348,5.285,5.285,0,0,1,1.5,3.354L814.4-655.7v.013h-.972l-4.246-58.352a4.3,4.3,0,0,0-1.216-2.734A3.565,3.565,0,0,0,805.421-717.839Z" transform="translate(-698.479 -1144.906)" fill="#f4c13b"/>
    <path id="Path_648" data-name="Path 648" d="M382.011-865.614l-10.321-.849,8.565-69.158a3.832,3.832,0,0,1,2.61-3.139h73.488c4.867,7.938-.375,19.686-7.569,21.107h-49.5c-1.516-.045-2.463,1.135-3.7,2.915C391.526-898.1,386.067-883.948,382.011-865.614Z" transform="translate(-336.842 -945.577)" fill="#1f1d5a" fill-rule="evenodd"/>
    <path id="Path_649" data-name="Path 649" d="M967.242-865.663c-4.436-24-6.172-47.07-1.7-67.993,2.918-9.092,13.584-9.58,17.211-.152,4.931,17.437-.889,42.552-7.376,68.145Z" transform="translate(-872.651 -943.838)" fill="#1f1d5a" fill-rule="evenodd"/>
    <path id="Path_650" data-name="Path 650" d="M971.218-926.186q.608-4.948,1.628-9.752a10.342,10.342,0,0,1,3.608-5.272,7.878,7.878,0,0,1,4.469-1.566,7.922,7.922,0,0,1,4.59,1.341,10.982,10.982,0,0,1,4.076,5.356,49.581,49.581,0,0,1,1.654,9.892.283.283,0,0,0,.486,0,50.032,50.032,0,0,0-1.674-10.028l-.008-.021a11.462,11.462,0,0,0-4.269-5.6,8.411,8.411,0,0,0-4.868-1.42,8.352,8.352,0,0,0-4.743,1.659,10.826,10.826,0,0,0-3.783,5.516.254.254,0,0,0-.011.038q-1.038,4.856-1.643,9.861A.275.275,0,0,0,971.218-926.186Z" transform="translate(-879.719 -941.498)" fill="#fff"/>
    <path id="Path_651" data-name="Path 651" d="M1033.4-140.55h-3.946v3.394h3.733Z" transform="translate(-932.933 -1668.951)" fill="#f8b6b8" fill-rule="evenodd"/>
    <path id="Path_652" data-name="Path 652" d="M1004.644-107.36l-1.178-4.482-6.647-.608L995.05-106.8l4.983.318Z" transform="translate(-901.759 -1694.416)" fill="#f4c13b" fill-rule="evenodd"/>
    <path id="Path_653" data-name="Path 653" d="M983.666-59.061l-7.983.516c-1.6.1-2.883.963-2.883,2.4V-56h13.781v-.152A2.86,2.86,0,0,0,983.666-59.061Z" transform="translate(-881.595 -1742.795)" fill="#f4c13b" fill-rule="evenodd"/>
    <path id="Path_654" data-name="Path 654" d="M1142.584-938.76,1137-911.828c-1.681-13.091-5.988-22.422-13.659-26.932Z" transform="translate(-1018.021 -945.577)" fill="#f58e8c" fill-rule="evenodd"/>
    <path id="Path_655" data-name="Path 655" d="M219.72-91.9l14.51-6.786,4.917.243,2.186,6.543Z" transform="translate(-199.12 -1706.886)" fill="#f4c13b" fill-rule="evenodd"/>
    <path id="Path_656" data-name="Path 656" d="M874.82-885.954H876V-977.61H874.82Z" transform="translate(-792.801 -910.37)" fill="#f4c13b" fill-rule="evenodd"/>
    <path id="Path_657" data-name="Path 657" d="M853.557-1741.438a.242.242,0,0,1,.31-.144.24.24,0,0,1,.144.309s-.451,1.218-.253,1.169a.242.242,0,0,1,.292.178.242.242,0,0,1-.178.292C852.764-1739.364,853.555-1741.433,853.557-1741.438Z" transform="translate(-773.282 -218.01)" fill="#f6a4a6"/>
    <path id="Path_658" data-name="Path 658" d="M371.5-169.745a.243.243,0,0,1-.222-.262.243.243,0,0,1,.262-.222l8.937.736a.243.243,0,0,1,.222.262.243.243,0,0,1-.262.222Z" transform="translate(-336.471 -1642.054)" fill="#322a2a"/>
    <path id="Path_659" data-name="Path 659" d="M1069.318-1616.39a4.609,4.609,0,0,1,.37.322l-2.1,3.542a.242.242,0,0,1-.332.085.243.243,0,0,1-.085-.332l2.122-3.586A.167.167,0,0,1,1069.318-1616.39Z" transform="translate(-967.092 -331.479)" fill="#fff" fill-rule="evenodd"/>
    <path id="Path_660" data-name="Path 660" d="M1521.411-577.37l1.39,1.39,1.39,1.39-1.39,1.39-1.39,1.39-1.39-1.39-1.391-1.39,1.391-1.39Z" transform="translate(-1376.25 -1273.085)" fill="#1954a6" fill-rule="evenodd"/>
    <path id="Path_661" data-name="Path 661" d="M1247.8-399.9a.243.243,0,0,1-.243-.243.243.243,0,0,1,.243-.243h3.871a.243.243,0,0,1,.243.243.243.243,0,0,1-.243.243Z" transform="translate(-1130.595 -1433.472)" fill="#1f1d5a"/>
    <path id="Path_662" data-name="Path 662" d="M1313.824-399.9a.243.243,0,0,1-.244-.243.243.243,0,0,1,.244-.243h6.189a.243.243,0,0,1,.243.243.243.243,0,0,1-.243.243Z" transform="translate(-1190.425 -1433.472)" fill="#f05775"/>
    <path id="Path_663" data-name="Path 663" d="M1683.243-474.572a.243.243,0,0,1-.243-.243.243.243,0,0,1,.243-.243h.969v-.969a.243.243,0,0,1,.243-.243.243.243,0,0,1,.243.243v.969h.969a.243.243,0,0,1,.243.243.243.243,0,0,1-.243.243h-.969v.969a.243.243,0,0,1-.243.243.243.243,0,0,1-.243-.243v-.969Z" transform="translate(-1525.21 -1364.706)" fill="#fbae4b"/>
    <path id="Path_664" data-name="Path 664" d="M1567.163-398.07a1.325,1.325,0,0,1,.937.388,1.32,1.32,0,0,1,.388.936,1.32,1.32,0,0,1-.388.936,1.32,1.32,0,0,1-.937.388,1.315,1.315,0,0,1-.935-.388,1.316,1.316,0,0,1-.388-.936,1.316,1.316,0,0,1,.388-.936A1.32,1.32,0,0,1,1567.163-398.07Zm.594.731a.839.839,0,0,0-.594-.246.84.84,0,0,0-.592.246.838.838,0,0,0-.245.593.836.836,0,0,0,.245.593.836.836,0,0,0,.592.246.835.835,0,0,0,.594-.246.833.833,0,0,0,.246-.593A.835.835,0,0,0,1567.756-397.339Z" transform="translate(-1419.034 -1435.575)" fill="#1f1d5a"/>
    <path id="Path_665" data-name="Path 665" d="M1.422-768.15a1.419,1.419,0,0,1,1.005.416,1.416,1.416,0,0,1,.416,1.005,1.416,1.416,0,0,1-.416,1.005h0a1.419,1.419,0,0,1-1.005.416,1.417,1.417,0,0,1-1-.416h0A1.419,1.419,0,0,1,0-766.729a1.417,1.417,0,0,1,.417-1h0A1.42,1.42,0,0,1,1.422-768.15Zm.662.759a.936.936,0,0,0-.662-.274.931.931,0,0,0-.662.273h0a.933.933,0,0,0-.273.662.935.935,0,0,0,.273.663.938.938,0,0,0,.663.274.932.932,0,0,0,.662-.275h0a.93.93,0,0,0,.273-.662A.933.933,0,0,0,2.084-767.391Z" transform="translate(0 -1100.192)" fill="#f4c13b"/>
    <path id="Path_666" data-name="Path 666" d="M93.633-701.742a.243.243,0,0,1-.243-.243.243.243,0,0,1,.243-.243h1.079v-1.079a.243.243,0,0,1,.243-.243.243.243,0,0,1,.243.243v1.079h1.079a.243.243,0,0,1,.243.243.243.243,0,0,1-.243.243H95.2v1.078a.244.244,0,0,1-.243.244.244.244,0,0,1-.243-.244v-1.078Z" transform="translate(-84.634 -1158.735)" fill="#1f1d5a"/>
    <path id="Path_667" data-name="Path 667" d="M182.563-571.334a.243.243,0,0,1-.243-.243.243.243,0,0,1,.243-.243h4.222a.243.243,0,0,1,.243.243.243.243,0,0,1-.243.243Z" transform="translate(-165.227 -1278.115)" fill="#3abeb5"/>
    <path id="Path_668" data-name="Path 668" d="M254.563-571.334a.243.243,0,0,1-.243-.243.243.243,0,0,1,.243-.243h6.75a.243.243,0,0,1,.243.243.243.243,0,0,1-.243.243Z" transform="translate(-230.476 -1278.115)" fill="#f9a01f"/>
    <path id="Path_669" data-name="Path 669" d="M280.123-528.744a.243.243,0,0,1-.243-.242.243.243,0,0,1,.243-.244h7.986a.243.243,0,0,1,.243.244.243.243,0,0,1-.243.242Z" transform="translate(-253.64 -1316.712)" fill="#f05775"/>
    <path id="Path_670" data-name="Path 670" d="M1135.533-1900.852a.244.244,0,0,1-.243-.244.243.243,0,0,1,.243-.243h.969v-.969a.243.243,0,0,1,.243-.243.243.243,0,0,1,.243.243v.969h.969a.243.243,0,0,1,.244.243.244.244,0,0,1-.244.244h-.969v.969a.243.243,0,0,1-.243.243.243.243,0,0,1-.243-.243v-.969Z" transform="translate(-1028.85 -72.148)" fill="#3abeb5"/>
    <path id="Path_671" data-name="Path 671" d="M1364.643-1878.164a.243.243,0,0,1-.243-.243.243.243,0,0,1,.243-.243h8.962a.243.243,0,0,1,.243.243.243.243,0,0,1-.243.243Z" transform="translate(-1236.48 -93.807)" fill="#f48b8c"/>
    <path id="Path_672" data-name="Path 672" d="M1287.274-1804.524a.244.244,0,0,1-.244-.243.244.244,0,0,1,.244-.243h7.3a.243.243,0,0,1,.244.243.243.243,0,0,1-.244.243Z" transform="translate(-1166.364 -160.543)" fill="#fbae4b"/>
  </g>
</svg>
