<svg xmlns="http://www.w3.org/2000/svg" width="159" height="159" viewBox="0 0 159 159">
  <g id="Group_738" data-name="Group 738" transform="translate(-860 -180)">
    <g id="Group_737" data-name="Group 737" transform="translate(40 -2)">
      <g id="Group_736" data-name="Group 736" transform="translate(860.498 203.386)">
        <path id="Path_673" data-name="Path 673" d="M77.891-151.789a6.986,6.986,0,0,0-2.454-5.319,6.986,6.986,0,0,0,.69-5.818,6.984,6.984,0,0,0-3.978-4.3,6.986,6.986,0,0,0-1.142-5.746,6.988,6.988,0,0,0-5.112-2.861,6.988,6.988,0,0,0-2.861-5.112,6.988,6.988,0,0,0-5.747-1.142,6.984,6.984,0,0,0-4.3-3.978,6.986,6.986,0,0,0-5.818.69,6.986,6.986,0,0,0-5.319-2.454,6.986,6.986,0,0,0-5.32,2.454,6.986,6.986,0,0,0-5.818-.69,6.984,6.984,0,0,0-4.3,3.978,6.988,6.988,0,0,0-5.747,1.142,6.985,6.985,0,0,0-2.861,5.112,6.988,6.988,0,0,0-5.113,2.861,6.986,6.986,0,0,0-1.141,5.746,6.986,6.986,0,0,0-3.978,4.3,6.986,6.986,0,0,0,.69,5.818,6.985,6.985,0,0,0-2.454,5.319,6.986,6.986,0,0,0,2.454,5.32,6.986,6.986,0,0,0-.69,5.818,6.987,6.987,0,0,0,3.978,4.3,6.988,6.988,0,0,0,1.141,5.747,6.985,6.985,0,0,0,5.113,2.861,6.985,6.985,0,0,0,2.861,5.113,6.987,6.987,0,0,0,5.747,1.141,6.987,6.987,0,0,0,4.3,3.978c.159.052.32.087.48.127v-6.047A15.094,15.094,0,0,1,23.2-133.806H21.929a5.225,5.225,0,0,1-5.225-5.226,5.225,5.225,0,0,1,5.225-5.225h.95v-7.6a13.6,13.6,0,0,1,13.6-13.6H47.223a13.6,13.6,0,0,1,13.6,13.6v7.76l.02-.159h.95a5.225,5.225,0,0,1,5.225,5.225,5.225,5.225,0,0,1-5.225,5.226H60.5a15.093,15.093,0,0,1-7.964,10.361v6.054c.15-.038.3-.07.45-.119a6.986,6.986,0,0,0,4.3-3.978,6.987,6.987,0,0,0,5.747-1.141,6.988,6.988,0,0,0,2.861-5.113,6.985,6.985,0,0,0,5.112-2.861,6.988,6.988,0,0,0,1.142-5.747,6.984,6.984,0,0,0,3.978-4.3,6.986,6.986,0,0,0-.69-5.818A6.986,6.986,0,0,0,77.891-151.789Z" transform="translate(-3.879 187.831)" fill="#828398"/>
        <path id="Path_674" data-name="Path 674" d="M44.884-108.73a2.128,2.128,0,0,0-2.128-2.128,2.128,2.128,0,0,0-2.128,2.128,2.128,2.128,0,0,0,2.128,2.128A2.128,2.128,0,0,0,44.884-108.73Z" transform="translate(-17.587 157.529)" fill="#f7adaa"/>
        <path id="Path_675" data-name="Path 675" d="M87.107-108.73a2.128,2.128,0,0,0-2.128-2.128,2.128,2.128,0,0,0-2.128,2.128,2.128,2.128,0,0,0,2.128,2.128A2.128,2.128,0,0,0,87.107-108.73Z" transform="translate(-34.209 157.529)" fill="#f7adaa"/>
        <path id="Path_676" data-name="Path 676" d="M71.9-122.367a15.082,15.082,0,0,1-15.082,15.082H49.045a15.083,15.083,0,0,1-15.083-15.082v-14.963a13.6,13.6,0,0,1,13.6-13.6H58.306a13.6,13.6,0,0,1,13.6,13.6Z" transform="translate(-14.963 173.303)" fill="none" stroke="#828398" stroke-miterlimit="2" stroke-width="1"/>
        <path id="Path_677" data-name="Path 677" d="M29.953-115.966H29a5.225,5.225,0,0,0-5.225,5.225A5.225,5.225,0,0,0,29-105.516h1.269" transform="translate(-10.954 159.54)" fill="none" stroke="#828398" stroke-miterlimit="2" stroke-width="1"/>
        <path id="Path_678" data-name="Path 678" d="M96.556-115.966h.95a5.225,5.225,0,0,1,5.225,5.225,5.225,5.225,0,0,1-5.225,5.226h-.97" transform="translate(-39.596 159.54)" fill="none" stroke="#828398" stroke-miterlimit="2" stroke-width="1"/>
        <path id="Path_679" data-name="Path 679" d="M47.672-81.108v6.043A10.672,10.672,0,0,0,58.344-64.392,10.672,10.672,0,0,0,69.017-75.065v-6.043" transform="translate(-20.36 145.818)" fill="none" stroke="#828398" stroke-miterlimit="2" stroke-width="1"/>
        <path id="Path_680" data-name="Path 680" d="M29.939-71.142,12.993-61.357a15.192,15.192,0,0,0-7.446,11.02L2.628-29.8" transform="translate(-2.628 141.894)" fill="none" stroke="#828398" stroke-linecap="round" stroke-miterlimit="2" stroke-width="1"/>
        <path id="Path_681" data-name="Path 681" d="M82.876-71.142l16.947,9.784a15.192,15.192,0,0,1,7.446,11.02l2.92,20.535" transform="translate(-34.218 141.894)" fill="none" stroke="#828398" stroke-linecap="round" stroke-miterlimit="2" stroke-width="1"/>
        <path id="Path_682" data-name="Path 682" d="M61.081-79.361,47.672-76.3v-4.811s.466.238,1.569.713S57.856-78.836,61.081-79.361Z" transform="translate(-20.36 145.818)" fill="#828398"/>
        <path id="Path_683" data-name="Path 683" d="M48.87-104.222H68.732v.156a9.931,9.931,0,0,1-9.93,9.931,9.931,9.931,0,0,1-9.931-9.931Z" transform="translate(-20.832 154.917)" fill="#f7adaa"/>
        <path id="Path_684" data-name="Path 684" d="M51.922-121.127a2.137,2.137,0,0,0-2.137-2.137,2.137,2.137,0,0,0-2.137,2.137,2.138,2.138,0,0,0,2.137,2.138A2.138,2.138,0,0,0,51.922-121.127Z" transform="translate(-20.35 162.413)" fill="#82839a"/>
        <path id="Path_685" data-name="Path 685" d="M80.075-121.127a2.137,2.137,0,0,0-2.137-2.137,2.137,2.137,0,0,0-2.137,2.137,2.138,2.138,0,0,0,2.137,2.138A2.138,2.138,0,0,0,80.075-121.127Z" transform="translate(-31.433 162.413)" fill="#82839a"/>
        <path id="Path_686" data-name="Path 686" d="M51.329-126.789H42.3a2.2,2.2,0,0,0-2.2,2.2v4.156a2.2,2.2,0,0,0,2.2,2.2h9.025a2.2,2.2,0,0,0,2.2-2.2v-4.156A2.2,2.2,0,0,0,51.329-126.789Z" transform="translate(-17.382 163.801)" fill="none" stroke="#828398" stroke-miterlimit="2" stroke-width="1"/>
        <path id="Path_687" data-name="Path 687" d="M79.482-126.789H70.457a2.2,2.2,0,0,0-2.2,2.2v4.156a2.2,2.2,0,0,0,2.2,2.2h9.025a2.2,2.2,0,0,0,2.2-2.2v-4.156A2.2,2.2,0,0,0,79.482-126.789Z" transform="translate(-28.465 163.801)" fill="none" stroke="#828398" stroke-miterlimit="2" stroke-width="1"/>
        <path id="Path_688" data-name="Path 688" d="M37.688-123.166H33.963" transform="translate(-14.963 162.375)" fill="none" stroke="#828398" stroke-miterlimit="2" stroke-width="1"/>
        <path id="Path_689" data-name="Path 689" d="M90.391-123.166h3.726" transform="translate(-37.177 162.375)" fill="none" stroke="#828398" stroke-miterlimit="2" stroke-width="1"/>
        <path id="Path_690" data-name="Path 690" d="M62.238-123.166h3.652" transform="translate(-26.094 162.375)" fill="none" stroke="#828398" stroke-miterlimit="2" stroke-width="1"/>
        <path id="Path_691" data-name="Path 691" d="M50.946-131.2a7.751,7.751,0,0,0-8.817-.105" transform="translate(-18.178 166.106)" fill="none" stroke="#828398" stroke-linecap="round" stroke-miterlimit="2" stroke-width="1"/>
        <path id="Path_692" data-name="Path 692" d="M72.054-131.2a7.751,7.751,0,0,1,8.817-.105" transform="translate(-29.958 166.106)" fill="none" stroke="#828398" stroke-linecap="round" stroke-miterlimit="2" stroke-width="1"/>
        <path id="Path_693" data-name="Path 693" d="M65.749-112.688s1.522,1.3,1.434,2.595-1.933.989-1.933.989" transform="translate(-27.28 158.25)" fill="none" stroke="#828398" stroke-linecap="round" stroke-miterlimit="2" stroke-width="1"/>
        <path id="Path_694" data-name="Path 694" d="M19.722-55V-23.45" transform="translate(-9.357 135.542)" fill="none" stroke="#828398" stroke-linecap="round" stroke-miterlimit="2" stroke-width="1"/>
        <path id="Path_695" data-name="Path 695" d="M110.825-55V-23.45" transform="translate(-45.221 135.542)" fill="none" stroke="#828398" stroke-linecap="round" stroke-miterlimit="2" stroke-width="1"/>
        <path id="Path_696" data-name="Path 696" d="M42.129-62.208S44.7-53.3,57.116-53.3c10.453,0,11.832-8.906,11.832-8.906" transform="translate(-18.178 138.378)" fill="none" stroke="#828398" stroke-linecap="round" stroke-miterlimit="2" stroke-width="1"/>
        <path id="Path_697" data-name="Path 697" d="M40.108-37.052s10.9,17.811,26.177,20.873" transform="translate(-17.382 128.474)" fill="none" stroke="#828398" stroke-linecap="round" stroke-miterlimit="2" stroke-width="1"/>
      </g>
      <g id="Ellipse_19" data-name="Ellipse 19" transform="translate(832 195)" fill="none" stroke="#828398" stroke-width="1" stroke-dasharray="2">
        <circle cx="67" cy="67" r="67" stroke="none"/>
        <circle cx="67" cy="67" r="66.5" fill="none"/>
      </g>
    </g>
    <g id="Ellipse_20" data-name="Ellipse 20" transform="translate(860 180)" fill="none" stroke="#828398" stroke-width="1" stroke-dasharray="100" opacity="0.266">
      <circle cx="79.5" cy="79.5" r="79.5" stroke="none"/>
      <circle cx="79.5" cy="79.5" r="79" fill="none"/>
    </g>
  </g>
</svg>
